Alicia Keys - Girl On Fire (Ft. Nicki Minaj) {M4A+MP4} (1080p) x264 [VX] [P2PDL]

Cover:  
http://www.shotpix.com/images/44128853288988905352.jpg

Release Title: Alicia Keys - Girl On Fire (Ft. Nicki Minaj)  (2012)

Music video by Alicia Keys performing Girl On Fire Inferno version Featuring Nicki Minaj. (C) 2012 RCA Records, a division of Sony Music Entertainment.

                             1080p Full HD MP4 Video
                                      +
                             128 Kbps/VBR M4A Audio

General
Format                         : MPEG-4
Format profile                 : Base Media / Version 2
Codec ID                       : mp42
File size                      : 52.9 MiB
Duration                       : 4mn 36s

Video
ID                             : 1
Format                         : AVC
Format/Info                    : Advanced Video Codec
Bit rate                       : 1 475 Kbps
Width                          : 1 920 pixels
Height                         : 1 080 pixels
Display aspect ratio           : 16:9
Frame rate mode                : Constant
Frame rate                     : 25.000 fps
Stream size                    : 48.6 MiB (92%)
Writing library                : x264 core 128

Audio
ID                             : 2
Format                         : AAC
Bit rate                       : 127 Kbps
Channel(s)                     : 2 channels
Channel positions              : Front: L R
Sampling rate                  : 48.0 KHz
Stream size                    : 4.18 MiB (8%)

Subtitles                      : No


Screens:
 
http://www.shotpix.com/images/12222543674263697352.jpg 
http://www.shotpix.com/images/42535012756994194982.jpg

Thumbs:
 
http://www.shotpix.com/images/07366348656537767474.jpg
------------------------------------------------------------------------


Notes:

* Recommended to use latest version VLC Media Player.
* Install shark007 codecs in case of any kind of problem in playback (For non-VLC Media Player users).
* Alternatively, install Core AVC codecs, the fastest decoder that there is coupled with Community Center Codec Pack and play on Windows Media Player Classic.
* Read NFO
* Help in seeding as much as you can. 


Greets to: VYTO, Riddl3r, staff members at ExtraTorrent, TPB,KAT, 1337x, PublicHD, Ahashare,
SilverTorrent, TorrentMafia, Digtorrent, BTScene, P2PDL, and all others


Encoder Notes: Looking For Early Access To Anything You Can Provide DVDScr, R5, DVDRips, BluRay, Direct Audio, Early Music
Releases, Seedboxes, Links, Dedicated Servers anything u can provide, Advance / Promo CDs/DVDs. If You Got anything to
offer contact me at "contact@tinym.eu"


Facebook Fan Page: http://www . facebook . com / p2pdl

                                  Enjoy!